<svg width="73" height="73" viewBox="0 0 73 73" fill="none" xmlns="http://www.w3.org/2000/svg">
<path d="M15.8308 11.6463C11.6378 17.6717 12.1596 25.5118 15.3631 31.9153L15.5975 32.3704L15.7475 32.6589L15.841 32.8249L16.0081 33.1237C16.1074 33.2986 16.2092 33.4733 16.3138 33.6479L16.4883 33.9353C16.6039 34.1212 16.7222 34.3062 16.8431 34.4902L16.9942 34.7235C17.1611 34.9729 17.3324 35.2202 17.508 35.4654L17.5229 35.4843L17.6096 35.6012C17.762 35.8111 17.9181 36.0188 18.0778 36.2245L18.254 36.4487C18.3962 36.627 18.5405 36.8045 18.6869 36.9813L18.8523 37.1787C19.049 37.4102 19.2503 37.6418 19.4551 37.8676L19.4671 37.8801L19.4904 37.9058C19.6906 38.1242 19.8954 38.3381 20.1035 38.552L20.2997 38.7499C20.4609 38.9115 20.624 39.0713 20.789 39.2295L20.9892 39.42C21.2094 39.628 21.4329 39.8314 21.6599 40.0302L21.6702 40.0394L21.7871 40.1386C21.9875 40.3123 22.1905 40.4838 22.3962 40.653L22.6483 40.8543C22.8159 40.9885 22.9851 41.1209 23.1558 41.2513L23.4279 41.4571C23.6161 41.5955 23.806 41.7318 23.9976 41.8661L24.2047 42.0132L24.2623 42.0543C24.4436 42.1797 24.6301 42.3001 24.8155 42.4204L25.055 42.5801C25.3401 42.7597 25.6293 42.9383 25.9213 43.1105L26.1608 43.2457C26.3756 43.3696 26.5924 43.4911 26.811 43.6101L27.1708 43.796L27.6362 44.0378L27.7434 44.0897L27.9339 44.1815C28.1773 44.2983 28.4231 44.4121 28.6713 44.5231L28.827 44.5927C29.111 44.7171 29.3977 44.8364 29.6871 44.9509L29.8969 45.033C30.165 45.1372 30.4355 45.2374 30.7085 45.3336L30.8106 45.3689C31.1094 45.4739 31.4117 45.5702 31.7157 45.6655L31.9341 45.7305C32.2432 45.824 32.5495 45.9347 32.8683 45.994C53.1446 49.6913 59.0342 33.8098 59.0342 33.8098C54.0873 40.2544 45.3074 41.9539 36.9882 40.0616C36.6728 39.9903 36.3671 39.8916 36.0597 39.8015L35.8282 39.7308C35.5284 39.6393 35.2302 39.5424 34.9339 39.44L34.8113 39.396C34.5472 39.3024 34.2844 39.2049 34.0232 39.1035L33.8019 39.0168C33.5156 38.9039 33.2319 38.786 32.951 38.6632L32.781 38.5873C32.5403 38.4792 32.3009 38.3679 32.063 38.2537L31.8554 38.1539C31.6689 38.0632 31.4847 37.9668 31.2999 37.8716L30.9298 37.6771C30.7051 37.557 30.4832 37.4326 30.2642 37.3041L30.0395 37.1792C29.7479 37.0065 29.4589 36.8293 29.1726 36.6477L28.9388 36.492C28.7312 36.3586 28.5256 36.2219 28.3223 36.082L28.1233 35.9422C27.9273 35.8042 27.7331 35.6639 27.5404 35.5213L27.2821 35.3257C27.1049 35.1908 26.9296 35.0537 26.7562 34.9145L26.5218 34.7263C26.3005 34.5453 26.0821 34.3611 25.8665 34.1737L25.7947 34.1138C25.5619 33.9085 25.3323 33.6997 25.1057 33.4876L24.9118 33.3005C24.7439 33.1418 24.5788 32.98 24.4168 32.8152L24.2229 32.6213C24.0164 32.4103 23.814 32.1962 23.6155 31.9791L23.5853 31.9466C23.3754 31.717 23.1701 31.4833 22.9694 31.2457L22.808 31.0541C22.6577 30.8734 22.51 30.6907 22.3648 30.506L22.2023 30.3035C22.0284 30.0788 21.8576 29.8516 21.6901 29.622C17.0718 23.3218 15.4121 14.6325 19.1038 7.49675M28.8453 6.56942C25.8135 10.9323 25.9778 16.774 28.3434 21.3879C28.7396 22.1633 29.1875 22.9111 29.6842 23.6263C30.1382 24.2782 30.6423 25.0527 31.2452 25.5757C31.4636 25.8163 31.6923 26.0513 31.9255 26.2817L32.1046 26.4591C32.3305 26.6792 32.562 26.8944 32.7993 27.1047L32.8278 27.1292L32.8346 27.136C33.0981 27.367 33.3701 27.5889 33.6462 27.8079L33.8304 27.9516C34.1076 28.1637 34.3899 28.3725 34.6796 28.5715L34.7041 28.5903L35.0919 28.8453L35.2756 28.9667C35.4824 29.0998 35.6923 29.2283 35.9052 29.3523L35.9942 29.4047C36.1782 29.5104 36.3635 29.614 36.5502 29.7156L36.7481 29.8182L37.1371 30.0201L37.1958 30.0469C37.4623 30.1788 37.733 30.3049 38.0079 30.425L38.187 30.4992C38.4071 30.5927 38.629 30.6826 38.8526 30.7689L39.1377 30.8739C39.3407 30.9491 39.5438 31.0182 39.7491 31.0866L40.0251 31.175C40.3165 31.2651 40.6051 31.3797 40.9085 31.4305C56.5636 34.0237 60.1777 21.9701 60.1777 21.9701C56.9201 26.6627 50.6107 28.9011 43.8781 27.1537C43.5806 27.0752 43.2849 26.9898 42.9913 26.8976L42.725 26.8115C42.5169 26.7445 42.3103 26.6734 42.1051 26.5982L41.825 26.4939C41.601 26.4076 41.3783 26.3176 41.1572 26.2241L40.9775 26.1483C40.7023 26.0282 40.43 25.9015 40.1609 25.7684L39.7514 25.5603L39.5153 25.4388C39.3404 25.3437 39.1676 25.246 38.9968 25.1456L38.8731 25.0755C38.6613 24.9521 38.4522 24.8243 38.2457 24.6922L38.0564 24.5662L37.6503 24.297C37.3631 24.0978 37.0809 23.8915 36.804 23.6782L36.6135 23.5277C33.6667 21.2014 31.3307 18.0213 30.2203 14.4158C29.0563 10.6762 29.3072 6.47874 31.3239 3.0717M39.7913 2.77628C38.0039 5.40656 37.8283 8.67388 39.0687 11.579C40.3764 14.6627 43.0563 17.0814 46.1845 18.2289L46.5734 18.3629L46.7445 18.4177C46.9287 18.4758 47.1118 18.5431 47.3023 18.5785C55.9465 20.2489 58.2911 14.1432 58.915 13.2438C56.8613 16.2009 53.4098 16.9109 49.1746 15.8826C48.8282 15.7941 48.4864 15.6884 48.1504 15.5661C47.7361 15.4191 47.3299 15.2504 46.9333 15.0608C46.1806 14.6991 45.4659 14.2631 44.7998 13.7594C41.01 10.8838 38.6564 5.39914 41.1292 0.931885" fill="#0868AC"/>
<path d="M37.8454 54.9182H35.4352C35.3672 54.9212 35.3018 54.9459 35.2488 54.9887C35.1957 55.0315 35.1577 55.0901 35.1404 55.156L34.2849 59.114L33.4295 63.072C33.4126 63.138 33.3749 63.1969 33.3219 63.2398C33.2688 63.2826 33.2033 63.3072 33.1352 63.3098H31.4294C29.7418 63.3098 29.9369 62.1423 30.2825 60.5432L30.2927 60.4947L30.3304 60.2928L30.3372 60.2552L30.4142 59.8446L30.4969 59.4048L30.5847 58.9571L30.9737 57.0569L31.3632 55.1566C31.3706 55.1276 31.3712 55.0972 31.3647 55.0679C31.3583 55.0387 31.3451 55.0113 31.3262 54.9881C31.3073 54.9648 31.2832 54.9464 31.2558 54.9341C31.2285 54.9219 31.1987 54.9162 31.1687 54.9176H28.6953C28.6272 54.9201 28.5617 54.9447 28.5088 54.9877C28.4559 55.0307 28.4185 55.0898 28.4022 55.156L27.8701 57.6791L27.3385 60.2027L27.3374 60.2061L27.2883 60.4411C26.6758 63.2373 26.8378 65.9047 30.1673 65.9885L30.2642 65.9902H35.49C35.5581 65.9877 35.6236 65.9631 35.6767 65.9203C35.7297 65.8774 35.7675 65.8185 35.7843 65.7524L36.9112 60.4548L38.0382 55.1566C38.0661 55.0254 37.9794 54.9188 37.8454 54.9182ZM12.0353 54.8903H9.38907C9.32066 54.8927 9.25485 54.9171 9.20135 54.9598C9.14786 55.0026 9.1095 55.0613 9.09194 55.1275L8.841 56.235L8.59007 57.3426C8.56098 57.4732 8.64596 57.5798 8.77998 57.5798H11.4468C11.515 57.577 11.5804 57.5523 11.6336 57.5095C11.6868 57.4667 11.7248 57.408 11.7422 57.342L11.9846 56.235L12.2269 55.1281C12.2549 54.9975 12.1693 54.8903 12.0353 54.8903ZM11.2677 58.3372H8.60033C8.53192 58.3397 8.46611 58.3641 8.41261 58.4068C8.35911 58.4495 8.32076 58.5083 8.3032 58.5745L7.9285 60.2341L7.55438 61.8931L7.45001 62.3688L7.09014 64.0626L6.73085 65.757C6.7029 65.8876 6.6453 66.0986 6.60253 66.2252C6.60253 66.2252 6.10407 67.708 5.26628 67.6909L5.16135 67.6886L4.43648 67.6755C4.36843 67.6773 4.30217 67.7008 4.24841 67.7425C4.19465 67.7843 4.15564 67.8421 4.13707 67.9076L3.86046 69.0705L3.58443 70.2328C3.55307 70.3628 3.63747 70.47 3.77035 70.4723C4.24543 70.478 5.30963 70.49 5.95351 70.49C8.04599 70.49 9.14954 69.3306 9.85616 65.9942L10.6837 62.1652L11.4599 58.5739C11.4878 58.4444 11.4011 58.3372 11.2677 58.3372ZM60.3813 57.4395L60.2706 56.9827L60.1617 56.5151L60.1064 56.279C59.8897 55.4366 59.2538 54.9513 57.8725 54.9513L55.7224 54.949L53.7423 54.9461H51.5141C51.4459 54.9485 51.3804 54.9729 51.3274 55.0159C51.2744 55.0588 51.2368 55.1178 51.2204 55.184L51.1217 55.6493L51.0053 56.1991L50.9728 56.3537L49.9697 61.053L49.0172 65.514C48.9887 65.6452 48.9796 65.806 48.9956 65.871C49.0115 65.9366 49.2687 65.9902 49.4022 65.9902H51.412C51.546 65.9902 51.7154 65.9663 51.7884 65.9366C51.8614 65.907 51.9692 65.6441 51.996 65.5135L52.353 63.7461L52.7106 61.9781L52.7112 61.9752L52.7591 61.7397L53.1925 59.7094L53.5752 57.9163C53.592 57.8504 53.6297 57.7916 53.6826 57.7488C53.7355 57.7059 53.8009 57.6813 53.8689 57.6785L60.1931 57.6757C60.3271 57.6768 60.4115 57.5702 60.3813 57.4395ZM68.5225 53.3105L68.0354 53.3122H66.0114C65.9372 53.3162 65.8648 53.3363 65.7991 53.3711C65.7334 53.4058 65.6761 53.4544 65.631 53.5135L61.1546 60.071C61.0793 60.1816 60.9932 60.1656 60.9636 60.0356L60.6339 58.591C60.6163 58.5247 60.5779 58.4659 60.5243 58.4232C60.4707 58.3805 60.4047 58.3561 60.3362 58.3538H57.459C57.325 58.3538 57.2457 58.4587 57.2822 58.587L58.5717 63.1045C58.6082 63.2334 58.611 63.4444 58.578 63.5744L58.0162 65.7604C57.9825 65.8904 58.0647 65.9959 58.1987 65.9959H61.0428C61.1116 65.9931 61.1779 65.9689 61.2322 65.9267C61.2866 65.8845 61.3265 65.8264 61.3463 65.7604L61.9086 63.5744C61.9529 63.4202 62.0229 63.2747 62.1156 63.1438L69.3825 53.4993C69.4635 53.392 69.4196 53.3048 69.2861 53.3059L68.5225 53.3105ZM45.6609 58.9674V58.9651C45.6511 59.034 45.617 59.0971 45.5649 59.1432C45.5128 59.1893 45.4459 59.2153 45.3764 59.2166H41.7281C41.6015 59.2166 41.5376 59.1311 41.5564 59.025L41.5598 59.0165L41.5575 59.0176L41.5593 59.0056L41.5758 58.9435C41.9243 58.0173 42.6337 57.4093 43.9677 57.4093C45.4699 57.4088 45.763 58.1422 45.6609 58.9674ZM44.5905 54.7562C39.9076 54.7562 38.7978 57.5987 38.175 60.4679C37.5528 63.3925 37.6059 66.126 42.4524 66.126H43.0398L43.1858 66.1254H43.22L43.8017 66.1237H43.812C45.0918 66.1186 46.3755 66.1089 46.8951 66.1049C46.9629 66.1017 47.0278 66.0767 47.0802 66.0335C47.1325 65.9903 47.1694 65.9313 47.1854 65.8653L47.3816 64.9066L47.4198 64.7202L47.6536 63.5761C47.6611 63.5471 47.6616 63.5168 47.6552 63.4875C47.6488 63.4583 47.6355 63.431 47.6166 63.4078C47.5977 63.3846 47.5736 63.3661 47.5462 63.354C47.5189 63.3418 47.489 63.3362 47.4591 63.3377H43.1025C41.3693 63.3377 40.8549 62.8775 41.0448 61.5236H48.0089L48.0084 61.5241L48.0129 61.5236C48.0681 61.5214 48.1214 61.5033 48.1665 61.4714C48.2115 61.4395 48.2463 61.3952 48.2667 61.3439L48.2832 61.2835L48.2827 61.284C49.3167 57.3837 49.0201 54.7568 44.5905 54.7562ZM22.4566 58.9526L22.3905 59.1858L21.8647 61.0502L21.3388 62.9134C21.3171 62.9793 21.2758 63.0369 21.2205 63.0788C21.1652 63.1207 21.0984 63.1447 21.0292 63.1478H18.246C16.1347 63.1478 15.6203 61.4962 16.1347 59.0609C16.6486 56.5698 17.6563 55.0214 19.7345 54.8646C22.5747 54.6501 23.1427 56.6474 22.4566 58.9526ZM24.3661 63.0047C24.3661 63.0047 25.6783 59.8178 25.976 57.9779C26.3827 55.5147 25.1491 51.9412 20.3847 51.9412C15.6477 51.9412 13.59 55.3522 12.8052 59.0609C12.0205 62.7965 13.0488 66.0718 17.759 66.045L21.4751 66.0313L24.9478 66.0188C25.0166 66.0153 25.0827 65.9908 25.1372 65.9486C25.1917 65.9064 25.2318 65.8485 25.2523 65.7826L25.8574 63.4752C25.8911 63.3451 25.8095 63.2391 25.6755 63.2379L25.0955 63.2345L24.5155 63.2311C24.402 63.2305 24.337 63.1564 24.3507 63.0588L24.3661 63.0047ZM47.8173 60.8711C47.8173 60.8921 47.8132 60.9129 47.8053 60.9322C47.7973 60.9516 47.7855 60.9693 47.7707 60.9841C47.7559 60.999 47.7383 61.0108 47.719 61.0188C47.6996 61.0269 47.6789 61.031 47.6579 61.0311C47.6369 61.0311 47.6162 61.027 47.5968 61.019C47.5774 61.0111 47.5598 60.9993 47.5449 60.9845C47.53 60.9697 47.5182 60.9521 47.5102 60.9328C47.5021 60.9134 47.498 60.8927 47.4979 60.8717C47.4978 60.8293 47.5146 60.7887 47.5445 60.7587C47.5744 60.7287 47.615 60.7118 47.6573 60.7117C47.6997 60.7116 47.7403 60.7284 47.7703 60.7583C47.8003 60.7882 47.8172 60.8288 47.8173 60.8711Z" fill="#F7F7F7"/>
</svg>
