<svg width="73" height="73" viewBox="0 0 73 73" fill="none" xmlns="http://www.w3.org/2000/svg">
<path d="M49.8985 16.7322C49.5488 16.7322 49.3115 16.7747 49.0651 16.8325V16.8721H49.1077C49.272 17.1884 49.5518 17.4196 49.7586 17.7025C49.9229 18.0279 50.0628 18.3534 50.227 18.6758L50.2696 18.6302C50.5555 18.4294 50.6955 18.107 50.6955 17.6173C50.5738 17.4743 50.5555 17.3314 50.4521 17.1915C50.3305 16.9877 50.0689 16.8873 49.9046 16.7261L49.8985 16.7322ZM17.5504 56.8639H14.7308C14.6509 52.3829 14.3769 47.9075 13.9095 43.4502H13.8852L9.59646 56.8639H7.45208L3.19375 43.4502H3.16333C2.83045 47.9144 2.63265 52.3877 2.57021 56.8639H0C0.168306 50.882 0.584 45.2752 1.24708 40.0435H4.745L8.80562 52.4048H8.82996L12.9271 40.0435H16.2577C16.9938 46.1755 17.4277 51.7823 17.5595 56.8639H17.5504ZM29.7688 44.4539C28.619 50.6772 27.1063 55.1991 25.2306 58.0198C23.7645 60.1976 22.1596 61.2855 20.4157 61.2835C19.9533 61.2835 19.3795 61.1435 18.6941 60.8637V59.3611C19.0307 59.4138 19.4221 59.4402 19.8682 59.4402C20.6833 59.4402 21.3393 59.2151 21.8361 58.765C22.4343 58.2175 22.7334 57.6041 22.7334 56.9248C22.7334 56.4523 22.5002 55.4952 22.0338 54.0534L18.9496 44.4539H21.7175L23.9288 51.6323C24.4297 53.2626 24.6375 54.4012 24.5523 55.048C25.769 51.8077 26.6156 48.2763 27.0921 44.4539H29.7688ZM67.2573 56.8639H59.2578V40.0435H61.9496V54.7956H67.2573V56.8639ZM57.159 57.2745L54.0687 55.7537C54.3444 55.5246 54.603 55.2711 54.8443 54.9933C56.1603 53.4522 56.8173 51.1679 56.8153 48.1404C56.8153 42.5742 54.6304 39.79 50.2605 39.788C48.1192 39.788 46.4463 40.4947 45.2417 41.908C43.9318 43.4532 43.2768 45.7294 43.2768 48.7366C43.2748 51.6951 43.8568 53.8648 45.0228 55.2458C46.0853 56.4928 47.6903 57.1164 49.8377 57.1164C50.6407 57.1164 51.3758 57.017 52.0429 56.8183L56.0731 59.1665L57.1681 57.2745H57.159ZM47.1458 53.4968C46.4625 52.3998 46.1208 50.6397 46.1208 48.2165C46.1208 43.9784 47.4084 41.8594 49.9837 41.8594C51.3342 41.8594 52.3248 42.3663 52.9554 43.3802C53.6367 44.4813 53.9774 46.2282 53.9774 48.621C53.9774 52.8935 52.6898 55.0308 50.1145 55.0328C48.762 55.0328 47.7704 54.5259 47.1398 53.512L47.1458 53.4968ZM42.1028 52.2041C42.1028 53.6357 41.5796 54.8078 40.5333 55.7202C39.491 56.6328 38.0878 57.089 36.3236 57.089C34.672 57.089 33.0873 56.5658 31.539 55.5225L32.2599 54.0747C33.5901 54.7418 34.7967 55.0744 35.8795 55.0724C36.8893 55.0724 37.6832 54.8493 38.2611 54.4032C38.5507 54.1861 38.7845 53.9033 38.9431 53.578C39.1018 53.2528 39.1808 52.8944 39.1736 52.5326C39.1736 51.5288 38.474 50.6772 37.2026 49.9624C36.0225 49.3145 33.6652 47.964 33.6652 47.964C32.3816 47.0302 31.7428 46.0295 31.7428 44.384C31.7428 43.0172 32.2194 41.9172 33.1724 41.0837C34.1275 40.2402 35.3644 39.8194 36.8833 39.8215C38.4426 39.8215 39.8621 40.2372 41.1416 41.0685L40.4937 42.5164C39.4736 42.0659 38.3725 41.8278 37.2574 41.8168C36.3956 41.8168 35.7325 42.0257 35.2681 42.4434C35.0343 42.6384 34.8457 42.882 34.7155 43.1572C34.5852 43.4325 34.5164 43.7327 34.5138 44.0372C34.5138 45.0349 35.2255 45.8926 36.5395 46.6226C37.7349 47.2766 40.15 48.6605 40.15 48.6605C41.467 49.5882 42.121 50.5768 42.121 52.2132L42.1028 52.2041ZM70.6397 34.4042C69.0124 34.3617 67.7501 34.5259 66.6946 34.9761C66.3905 35.0977 65.9038 35.0978 65.8612 35.484C66.0285 35.6453 66.0528 35.9099 66.1958 36.135C66.4391 36.5425 66.8589 37.087 67.2482 37.3729C67.67 37.7116 68.1029 38.0259 68.547 38.3158C69.3378 38.8025 70.2351 39.0915 71.0108 39.5812C71.4518 39.8671 71.902 40.229 72.3491 40.5332C72.5711 40.6853 72.7141 40.959 73 41.0564V40.9955C72.8601 40.813 72.8175 40.5484 72.6806 40.3446C72.4768 40.1408 72.273 39.9583 72.0723 39.7576C71.4759 38.9699 70.7631 38.2776 69.9583 37.7045C69.3074 37.2604 67.8839 36.6399 67.6162 35.8947L67.5767 35.8521C68.0208 35.8125 68.55 35.6513 68.9759 35.5297C69.6663 35.3472 70.299 35.3867 71.0138 35.2072C71.3382 35.1221 71.6627 35.0268 71.9871 34.9213V34.7388C71.6221 34.3738 71.3484 33.878 70.9712 33.5374C69.9174 32.6184 68.7948 31.7815 67.6132 31.0341C66.9745 30.6265 66.1654 30.3649 65.4932 30.0182C65.2498 29.8965 64.8422 29.8357 64.7023 29.6319C64.3373 29.1878 64.1244 28.5977 63.8659 28.0685C63.2693 26.9095 62.7144 25.7296 62.2021 24.531C61.8371 23.7341 61.615 22.9402 61.1679 22.2102C59.0692 18.7518 56.797 16.6561 53.3022 14.606C52.5509 14.1802 51.6505 13.9977 50.6985 13.7726C50.1905 13.7483 49.6826 13.7118 49.1777 13.6905C48.8431 13.5475 48.5207 13.1612 48.2347 12.9757C47.0789 12.2457 44.0859 10.664 43.2342 12.7567C42.6867 14.0768 44.0464 15.3786 44.5178 16.0478C44.8676 16.5132 45.3087 17.0455 45.552 17.5686C45.695 17.9215 45.7345 18.2834 45.8775 18.6515C46.1999 19.5457 46.5071 20.5434 46.9329 21.3798C47.155 21.8057 47.3983 22.2528 47.6842 22.636C47.8485 22.8581 48.1283 22.9615 48.1922 23.3265C47.9062 23.7402 47.888 24.3424 47.7238 24.8473C46.9938 27.1499 47.2797 29.9969 48.3138 31.6911C48.6393 32.196 49.4149 33.3153 50.4521 32.8865C51.3646 32.5215 51.1639 31.3656 51.4255 30.3467C51.4863 30.1033 51.4468 29.9421 51.5715 29.7779V29.8235C51.8574 30.3953 52.1433 30.9398 52.4049 31.5116C53.0315 32.5093 54.1265 33.5435 55.042 34.2339C55.5287 34.5989 55.915 35.2316 56.5233 35.4567V35.3958H56.4777C56.3469 35.2194 56.1735 35.1342 56.0093 34.9913C55.6241 34.6133 55.2682 34.2066 54.9447 33.7746C54.0903 32.6019 53.3305 31.3631 52.6725 30.0699C52.338 29.4311 52.0581 28.7437 51.7905 28.1141C51.6688 27.8708 51.6688 27.5058 51.465 27.3841C51.1608 27.8282 50.7137 28.2145 50.4917 28.762C50.1054 29.638 50.0658 30.7147 49.9198 31.834C49.8377 31.8553 49.8773 31.834 49.8377 31.8766C49.1868 31.7185 48.9647 31.0432 48.7214 30.4775C48.1131 29.0327 48.0127 26.7119 48.5389 25.0481C48.6819 24.6222 49.2902 23.2778 49.0469 22.8702C48.9191 22.484 48.5176 22.2619 48.2956 21.9486C48.0103 21.5406 47.7658 21.1056 47.5656 20.6498C47.0789 19.5122 46.8356 18.253 46.3063 17.1154C46.063 16.5892 45.6372 16.0387 45.2904 15.555C44.9041 15.0075 44.4783 14.6212 44.1711 13.9734C44.0707 13.7513 43.9277 13.3833 44.089 13.14C44.1315 12.9757 44.2167 12.9118 44.3749 12.8662C44.6425 12.6472 45.3938 12.9331 45.6585 13.0548C46.4098 13.359 47.0424 13.6449 47.672 14.0707C47.958 14.2715 48.2652 14.6577 48.6302 14.7581H49.056C49.7069 14.9011 50.44 14.8007 51.0483 14.9802C52.1281 15.3269 53.1014 15.8318 53.9744 16.3793C56.6645 18.0973 58.8524 20.4961 60.3162 23.3326C60.5596 23.801 60.666 24.2299 60.8881 24.7165C61.3139 25.7203 61.8401 26.7332 62.272 27.7035C62.6979 28.6616 63.1085 29.638 63.7199 30.4318C64.024 30.8577 65.2468 31.0797 65.7943 31.3018C66.1988 31.4843 66.8285 31.6515 67.1935 31.8736C67.893 32.2994 68.5744 32.7861 69.2314 33.2545C69.566 33.4857 70.5788 33.9936 70.6397 34.4042Z" fill="#F7F7F7"/>
</svg>
