<svg width="67" height="67" viewBox="0 0 67 67" fill="none" xmlns="http://www.w3.org/2000/svg">
<path d="M66.3038 51.5272C63.917 52.1344 62.4409 51.5534 61.1166 49.5643C58.1434 45.1099 54.8615 40.8596 51.6947 36.5307C51.2864 35.9707 50.8624 35.421 50.3338 34.7249C46.5859 39.7813 42.8434 44.5969 39.3311 49.6062C38.0749 51.3964 36.7558 52.1763 34.4108 51.5429L48.5017 32.6311L35.3844 15.5514C37.6404 15.1117 39.2002 15.3368 40.5821 17.3572C43.6338 21.8169 46.9995 26.062 50.3547 30.5531C53.7309 26.0777 57.0547 21.8274 60.1953 17.4096C61.4568 15.6194 62.8125 14.9389 65.079 15.5985C63.3621 17.8754 61.6819 20.1157 59.9912 22.3403C57.709 25.3396 55.4687 28.3756 53.1027 31.3121C52.26 32.3589 52.3961 33.0394 53.1499 34.0287C57.5258 39.7813 61.8494 45.5914 66.3038 51.5272ZM0.696184 32.3171C1.07306 30.4275 1.32431 28.5012 1.84775 26.6482C4.98837 15.431 17.8649 10.7671 26.711 17.7184C31.8931 21.796 33.1807 27.5433 32.9242 34.0235H3.71642C3.27673 45.649 11.6465 52.6683 22.3142 49.088C26.0567 47.8318 28.2604 44.9005 29.3649 41.2364C29.9249 39.3992 30.8514 39.1113 32.5788 39.6347C31.6942 44.22 29.6894 48.0516 25.5019 50.4489C19.2206 54.0397 10.2542 52.8777 5.53798 47.8893C2.75329 44.9581 1.57032 41.3097 1.04689 37.3682C0.968372 36.7401 0.806106 36.1225 0.680481 35.4996C0.69095 34.4387 0.696184 33.3779 0.696184 32.3171ZM3.76876 31.5371H30.1657C29.993 23.1307 24.7586 17.1583 17.6032 17.106C9.75165 17.0432 4.109 22.8743 3.76876 31.5371Z" fill="#F7F7F7"/>
</svg>
