<svg width="74" height="74" viewBox="0 0 74 74" fill="none" xmlns="http://www.w3.org/2000/svg">
<g clip-path="url(#clip0_3_213)">
<path d="M13.1044 0.925049H60.8956C68.1419 0.925049 74 6.78319 74 14.0294V59.9707C74 67.2169 68.1419 73.0751 60.8956 73.0751H13.1044C5.85814 73.0751 0 67.2169 0 59.9707V14.0294C0 6.78319 5.85814 0.925049 13.1044 0.925049Z" fill="#001E36"/>
<path d="M26.5169 19.2706C25.5919 19.2706 24.6669 19.2706 23.7112 19.3018C22.755 19.3325 21.8607 19.3325 21.0282 19.3637C20.1957 19.3943 19.425 19.3943 18.685 19.425C17.9757 19.4556 17.4825 19.4556 16.9582 19.4556C16.7425 19.4556 16.65 19.5788 16.65 19.795V51.5225C16.65 51.8 16.7732 51.9237 17.02 51.9237H23.0019C23.2175 51.8925 23.3719 51.7075 23.3407 51.4918V41.5943C23.9263 41.5943 24.3582 41.5943 24.6669 41.625C24.975 41.6556 25.4682 41.6556 26.2082 41.6556C28.7369 41.6556 31.0494 41.3781 33.1457 40.6075C35.15 39.8675 36.8769 38.5725 38.11 36.8456C39.3434 35.119 39.96 32.9298 39.96 30.2781C39.96 28.8906 39.7137 27.565 39.2512 26.27C38.7612 24.9506 37.9935 23.7519 37 22.755C35.8275 21.6159 34.4161 20.7521 32.8682 20.2263C31.1413 19.5788 29.045 19.2706 26.5169 19.2706ZM27.2049 25.3438C28.3033 25.3646 29.3728 25.5566 30.3707 25.9613C31.265 26.3006 32.005 26.9175 32.5294 27.7188C33.0212 28.548 33.2672 29.5 33.2387 30.4637C33.2387 31.82 32.93 32.8687 32.2825 33.6393C31.6038 34.41 30.7407 34.9962 29.7544 35.2737C28.6132 35.6437 27.4107 35.8281 26.2082 35.8281H24.5738C24.2038 35.8281 23.8037 35.7975 23.3719 35.7668V25.4068C23.5875 25.3756 24.0194 25.345 24.6362 25.3762C25.2219 25.345 25.9307 25.345 26.7325 25.345C26.8905 25.3411 27.048 25.3408 27.2049 25.3438ZM53.0644 26.9181C50.875 26.9181 49.0557 27.2568 47.6069 27.9968C46.2812 28.6137 45.14 29.6 44.3694 30.8331C43.6912 31.9743 43.3207 33.2381 43.3207 34.5643C43.2943 35.6551 43.538 36.7355 44.03 37.7093C44.6067 38.7463 45.4074 39.6416 46.3737 40.33C47.7301 41.2577 49.202 42.004 50.7519 42.55C52.2625 43.1356 53.28 43.5981 53.7738 43.9988C54.2669 44.4 54.5137 44.8006 54.5137 45.2325C54.5137 45.7875 54.1744 46.3118 53.6812 46.5275C53.1262 46.805 52.2937 46.9593 51.1219 46.9593C49.8887 46.9593 48.655 46.805 47.4832 46.4968C46.1376 46.1963 44.8476 45.6866 43.66 44.9862C43.5675 44.9244 43.475 44.8937 43.3825 44.9556C43.29 45.0168 43.2594 45.14 43.2594 45.2325V50.5975C43.2287 50.8443 43.3825 51.06 43.5987 51.1831C44.5986 51.6502 45.6562 51.9821 46.7437 52.17C48.1312 52.4475 49.5182 52.5706 50.9363 52.5706C53.1563 52.5706 55.0069 52.2318 56.5175 51.5843C57.905 51.0293 59.1075 50.0737 59.9707 48.84C60.7791 47.6271 61.1985 46.1967 61.1732 44.7393C61.2036 43.6384 60.96 42.5472 60.4644 41.5637C59.8782 40.515 59.0457 39.6518 58.0282 39.0044C56.5396 38.0696 54.9459 37.3139 53.28 36.7531C52.5361 36.4452 51.8057 36.1058 51.0907 35.7356C50.69 35.52 50.32 35.2425 50.0425 34.9031C49.8575 34.6563 49.7344 34.3793 49.7344 34.1018C49.7344 33.8243 49.8269 33.5162 49.9807 33.2693C50.1969 32.9612 50.5357 32.745 50.9363 32.6525C51.5225 32.4987 52.17 32.4056 52.7863 32.4363C53.9582 32.4363 55.0988 32.5906 56.24 32.8375C57.2887 33.0531 58.275 33.3925 59.2 33.8862C59.3232 33.9475 59.4775 33.9475 59.755 33.8862C59.8032 33.8505 59.8423 33.8039 59.8691 33.7503C59.8959 33.6967 59.9097 33.6375 59.9094 33.5775V28.5518C59.9094 28.4281 59.8782 28.305 59.8475 28.1818C59.7857 28.0587 59.6625 27.935 59.5394 27.9043C58.689 27.5568 57.7979 27.3184 56.8875 27.195C55.6215 27.0106 54.3438 26.9185 53.0644 26.9181Z" fill="#31A8FF"/>
</g>
<defs>
<clipPath id="clip0_3_213">
<rect width="74" height="74" fill="white"/>
</clipPath>
</defs>
</svg>
