<svg width="59" height="59" viewBox="0 0 59 59" fill="none" xmlns="http://www.w3.org/2000/svg">
<g clip-path="url(#clip0_3_81)">
<path d="M12.5702 0.050665C12.4781 0.0866181 9.88758 1.56254 6.81451 3.32885C3.09106 5.46945 1.17863 6.5969 1.0763 6.70291C0.988722 6.80663 0.919582 6.92509 0.87441 7.05323C0.797433 7.3132 0.791902 45.3041 0.8698 45.5775C0.897918 45.6835 0.989644 45.8393 1.07261 45.925C1.27358 46.137 23.5037 58.9188 23.7738 58.9806C23.8992 59.0106 24.0397 59.0055 24.1794 58.9668C24.4827 58.8907 46.6547 46.137 46.852 45.9287C46.9327 45.8388 47.0249 45.6835 47.0548 45.5779C47.0935 45.4521 47.1078 43.4668 47.1078 39.2838V33.1718L52.5128 30.0674C57.6089 27.1372 57.921 26.9537 58.0519 26.7528L58.1855 26.5361V19.9526C58.1855 12.7859 58.1994 13.1892 57.9159 12.9302C57.8398 12.8629 55.2434 11.3478 52.1403 9.56073L46.504 6.31942H45.8776L40.3634 9.48606C37.3277 11.2321 34.7473 12.7251 34.6215 12.8062C34.4961 12.8892 34.3463 13.0422 34.285 13.1533L34.1735 13.3455L34.1486 19.5474L34.1264 25.7516L29.5728 28.3744C27.0681 29.8143 24.9833 31.0063 24.939 31.0174C24.8584 31.04 24.8528 30.4495 24.8528 19.0487V7.04908L24.733 6.84304C24.5827 6.59183 25.2566 6.99238 18.4901 3.10299C12.8155 -0.160444 12.9519 -0.0922256 12.5702 0.050665ZM17.7867 4.80155C20.1605 6.16362 22.1029 7.29061 22.1029 7.30444C22.1029 7.31873 20.0213 8.52177 17.4774 9.98387L12.8491 12.6412L8.22913 9.98433C5.69075 8.52177 3.61054 7.31873 3.61054 7.30444C3.61054 7.29015 5.68706 6.08756 8.2259 4.6287L12.8348 1.97738L13.1529 2.1507C14.7004 3.02955 16.245 3.91317 17.7867 4.80155ZM50.8211 10.914C53.3203 12.3531 55.3881 13.5423 55.4075 13.5617C55.46 13.6091 46.2929 18.8786 46.1675 18.873C46.0421 18.8694 36.9879 13.6483 36.9916 13.5847C36.9962 13.5123 46.1057 8.27149 46.1979 8.28577C46.2399 8.29591 48.3215 9.4796 50.8211 10.914ZM7.51329 11.6746L11.9189 14.2111L11.9443 26.7703L11.9673 39.3318L12.0747 39.5014C12.131 39.5908 12.237 39.713 12.3144 39.7692C12.3872 39.8222 14.839 41.2193 17.7618 42.8685L23.0718 45.8674V51.1806C23.0718 54.0965 23.052 56.4888 23.0271 56.4888C23.0082 56.4888 18.4177 53.8619 12.8293 50.6459L2.67022 44.8035L2.65639 26.8427L2.64764 8.8873L2.8735 9.01221C3.00394 9.08135 5.08922 10.2789 7.51283 11.6741L7.51329 11.6746ZM23.0718 20.5154V32.089L22.8934 32.2057C22.6514 32.3587 13.8281 37.4304 13.7982 37.4304C13.7843 37.4304 13.7733 32.2052 13.7733 25.818L13.7788 14.2107L18.3882 11.5594C20.9229 10.1005 23.0132 8.9168 23.0381 8.92556C23.0561 8.93662 23.0718 14.1526 23.0718 20.5154ZM40.6565 17.8535L45.2765 20.5098V25.7756C45.2765 30.7712 45.2715 31.0395 45.1954 31.0105C45.1461 30.9916 43.0557 29.7936 40.5478 28.349L35.9799 25.7263V20.4624C35.9799 17.5644 35.9946 15.1966 36.0085 15.1966C36.0283 15.1966 38.1182 16.3914 40.6565 17.8535ZM56.404 20.4287C56.404 23.3114 56.3847 25.6889 56.3653 25.712C56.3321 25.765 47.1945 31.0303 47.1364 31.0303C47.1221 31.0303 47.1078 28.6634 47.1078 25.765V20.5011L51.7172 17.8479C54.2556 16.3914 56.3459 15.1966 56.3653 15.1966C56.3897 15.1966 56.404 17.5497 56.404 20.4287ZM44.2468 32.6956L23.9711 44.2684L14.7758 39.0381C14.7758 39.0381 35.0313 27.323 35.1124 27.3534L44.2468 32.6956ZM45.2678 39.53L45.2521 44.804L35.0986 50.6469C29.512 53.8624 24.9201 56.4892 24.8971 56.4892C24.8727 56.4892 24.8533 54.3422 24.8533 51.1811V45.8679L35.0308 40.0637C40.6229 36.8727 45.218 34.2605 45.2424 34.255C45.2622 34.255 45.271 36.6279 45.2673 39.5295L45.2678 39.53Z" fill="#F0513F"/>
</g>
<defs>
<clipPath id="clip0_3_81">
<rect width="59" height="59" fill="white"/>
</clipPath>
</defs>
</svg>
