<svg width="71" height="71" viewBox="0 0 71 71" fill="none" xmlns="http://www.w3.org/2000/svg">
<g clip-path="url(#clip0_4_28)">
<path d="M69.1901 32.3816L38.6179 1.81055C36.8584 0.0499678 34.0029 0.0499678 32.2407 1.81055L25.8928 8.1595L33.9458 16.2125C35.8178 15.5807 37.9634 16.0044 39.4549 17.496C40.9543 18.997 41.3747 21.1608 40.7274 23.039L48.4886 30.8007C50.3662 30.1534 52.5334 30.5716 54.0321 32.0737C56.1288 34.1688 56.1288 37.5651 54.0321 39.6613C53.5339 40.1598 52.9422 40.5553 52.2911 40.8251C51.64 41.0949 50.942 41.2337 50.2372 41.2337C49.5324 41.2337 48.8345 41.0949 48.1833 40.8251C47.5322 40.5553 46.9406 40.1598 46.4423 39.6613C45.6939 38.9121 45.1837 37.9583 44.976 36.92C44.7682 35.8816 44.8722 34.8049 45.2747 33.8254L38.0371 26.5879L38.036 45.6364C38.5612 45.8949 39.0406 46.2374 39.4555 46.6504C41.5511 48.7454 41.5511 52.1407 39.4555 54.2402C37.3593 56.3352 33.9619 56.3352 31.8679 54.2402C29.7723 52.1412 29.7723 48.746 31.8679 46.6504C32.3705 46.1481 32.9675 45.7503 33.6246 45.48V26.2551C32.9668 25.9859 32.3695 25.5878 31.8679 25.0841C30.2804 23.4977 29.8982 21.168 30.7125 19.2177L22.7733 11.2785L1.81051 32.2401C0.964785 33.0861 0.489685 34.2334 0.489685 35.4296C0.489685 36.6258 0.964785 37.7731 1.81051 38.6191L32.3832 69.1901C34.1438 70.9507 36.9982 70.9507 38.7616 69.1901L69.1906 38.7611C70.0362 37.9148 70.5111 36.7675 70.511 35.5712C70.5109 34.3749 70.0358 33.2277 69.1901 32.3816Z" fill="#F34F29"/>
</g>
<defs>
<clipPath id="clip0_4_28">
<rect width="71" height="71" fill="white"/>
</clipPath>
</defs>
</svg>
