<svg width="75" height="75" viewBox="0 0 75 75" fill="none" xmlns="http://www.w3.org/2000/svg">
<g clip-path="url(#clip0_3_207)">
<path d="M13.3008 0.9375H61.7578C69.082 0.9375 75.0586 6.85547 75.0586 14.2383V60.8203C75.0586 68.1445 69.1406 74.1211 61.7578 74.1211H13.3008C5.91797 74.0625 0 68.1445 0 60.7617V14.2383C0 6.85547 5.91797 0.9375 13.3008 0.9375Z" fill="#330000"/>
<path d="M36.2695 44.707H24.6094L22.2656 52.0313C22.207 52.3242 21.9726 52.5 21.6797 52.4414H15.8203C15.4687 52.4414 15.4101 52.2656 15.4687 51.8555L25.5469 22.9102C25.6641 22.6172 25.7226 22.2656 25.8398 21.8555C25.957 21.2109 26.0156 20.5078 26.0156 19.8047C25.957 19.6289 26.1328 19.5117 26.25 19.4531H34.3359C34.5703 19.4531 34.6875 19.5703 34.7461 19.6875L46.1719 51.8555C46.2891 52.207 46.1719 52.3828 45.8789 52.3828H39.3164C39.082 52.4414 38.9062 52.2656 38.7891 52.0313L36.2695 44.707ZM26.4258 38.3203H34.3359C34.1601 37.6758 33.9258 36.8555 33.6328 36.0938C33.3398 35.2734 33.0469 34.3359 32.8125 33.3984C32.5195 32.4023 32.2266 31.4648 31.9336 30.5273C31.6406 29.5312 31.3476 28.6523 31.1133 27.7734C30.8789 26.8945 30.6445 26.0742 30.4101 25.3125H30.3516C30.0586 26.6602 29.707 28.0078 29.2969 29.3555C28.8281 30.8789 28.3594 32.4023 27.832 33.9844C27.3633 35.5664 26.8945 37.0313 26.4258 38.3203ZM53.1445 25.0195C52.0898 25.0781 51.0937 24.668 50.3906 23.9062C49.6875 23.1445 49.2773 22.0898 49.3359 21.0352C49.2773 19.9805 49.6875 18.9844 50.4492 18.2813C51.2109 17.5781 52.207 17.168 53.2031 17.168C54.4336 17.168 55.3711 17.5195 56.0742 18.2813C56.7773 19.043 57.1289 20.0391 57.1289 21.0352C57.1875 22.0898 56.7773 23.1445 56.0156 23.9062C55.2539 24.668 54.1992 25.0781 53.1445 25.0195ZM49.6289 52.1484V28.0664C49.6289 27.7734 49.7461 27.6563 50.0391 27.6563H56.25C56.543 27.6563 56.6601 27.832 56.6601 28.0664V52.1484C56.6601 52.5 56.543 52.6758 56.25 52.6758H50.0976C49.8047 52.6172 49.6289 52.4414 49.6289 52.1484Z" fill="#FF9A00"/>
</g>
<defs>
<clipPath id="clip0_3_207">
<rect width="75" height="75" fill="white"/>
</clipPath>
</defs>
</svg>
