<svg width="75" height="73" viewBox="0 0 75 73" fill="none" xmlns="http://www.w3.org/2000/svg">
<g clip-path="url(#clip0_3_198)">
<path d="M62.342 0H12.41C5.55615 0 0 5.55615 0 12.41V60.4732C0 67.3271 5.55615 72.8832 12.41 72.8832H62.342C69.1959 72.8832 74.752 67.3271 74.752 60.4732V12.41C74.752 5.55615 69.1959 0 62.342 0Z" fill="#470137"/>
<path d="M39.2968 19.1669L29.9694 34.562L39.9485 50.9096C40.0128 51.0241 40.0306 51.1584 39.9987 51.2857C39.9833 51.34 39.95 51.3534 39.8989 51.3555L39.8422 51.3546L39.7733 51.3528C39.736 51.3528 39.6942 51.3546 39.6478 51.3622H32.4529L32.3116 51.3599C31.9238 51.3496 31.6443 51.2941 31.4741 51.0097C30.8084 49.7128 30.1397 48.4174 29.4681 47.1235C28.8673 45.9695 28.2501 44.824 27.6168 43.6876L27.337 43.1871C26.5795 41.8407 25.8357 40.4868 25.1056 39.1253H25.0554C24.3811 40.4725 23.6874 41.8098 22.9743 43.1368C22.255 44.4742 21.5445 45.8031 20.843 47.1235C20.1409 48.4447 19.4221 49.757 18.6868 51.06C18.5686 51.3257 18.3721 51.3812 18.0985 51.3902L17.9846 51.392H11.1147L11.0849 51.3928L10.9868 51.4016C10.9322 51.4048 10.8995 51.3931 10.889 51.3108C10.8703 51.1885 10.8971 51.0636 10.9643 50.9598L20.6424 35.0633L11.2148 19.1172C11.1148 18.9841 11.098 18.8754 11.1646 18.7913C11.2016 18.7485 11.2481 18.7149 11.3003 18.6931C11.3526 18.6713 11.4092 18.6619 11.4657 18.6658H18.5362C18.6903 18.6574 18.8445 18.6832 18.9876 18.7411C19.1073 18.8092 19.2104 18.9035 19.2884 19.0171C19.8901 20.3544 20.5588 21.6916 21.2944 23.0285C22.0242 24.3569 22.7681 25.6775 23.5259 26.9901C24.272 28.2824 24.9662 29.604 25.6069 30.9517H25.6572C26.3138 29.6043 26.9908 28.267 27.688 26.9402C28.3729 25.6363 29.0748 24.3241 29.7939 23.0034C30.5037 21.7 31.1975 20.3878 31.875 19.0673C31.9136 18.9435 31.9825 18.8313 32.0756 18.7411C32.1995 18.6784 32.3386 18.6522 32.4768 18.6658H39.046C39.1063 18.6507 39.17 18.6557 39.2273 18.6799C39.2847 18.7042 39.3326 18.7463 39.3639 18.8002C39.3951 18.854 39.4081 18.9165 39.4008 18.9783C39.3935 19.0401 39.3663 19.0979 39.3234 19.1429L39.2968 19.1669ZM54.034 52.009L53.6883 52.0128C51.3801 52.048 49.0931 51.5684 46.9936 50.6088C45.0377 49.7036 43.4028 48.2259 42.305 46.3713C41.1979 44.5327 40.63 42.242 40.6011 39.4991L40.6 39.2757C40.5811 36.9742 41.1693 34.7084 42.3053 32.7066C43.4421 30.7253 45.0994 29.0929 47.0976 27.9861L47.2696 27.8927C49.442 26.6891 52.0663 26.0872 55.1425 26.0872L55.2768 26.0887L55.4304 26.0937L55.6026 26.1013L55.7942 26.1124L56.116 26.1351L56.4804 26.1643L56.747 26.1877V16.3088C56.747 16.075 56.8472 15.958 57.0478 15.9578H63.3663C63.4072 15.9519 63.4489 15.9556 63.488 15.9687C63.5272 15.9817 63.5628 16.0037 63.592 16.0329C63.6212 16.0621 63.6431 16.0977 63.6562 16.1368C63.6692 16.176 63.673 16.2177 63.6671 16.2585V45.8951C63.6671 46.3928 63.6864 46.9286 63.7249 47.5022L63.8184 48.8031L63.868 49.5556C63.8742 49.6598 63.8487 49.7634 63.795 49.853C63.7413 49.9425 63.6618 50.0137 63.5669 50.0572C61.9369 50.737 60.2391 51.2412 58.5022 51.5613C57.0277 51.8336 55.5332 51.9834 54.034 52.009ZM56.747 45.7946V32.1048C56.476 32.0314 56.1993 31.981 55.9198 31.9544C55.5781 31.9199 55.235 31.9031 54.8916 31.9042C53.6748 31.8919 52.4722 32.1668 51.3815 32.7066C50.3193 33.235 49.4122 34.0298 48.7488 35.0134C48.0868 35.9817 47.7444 37.246 47.7219 38.8065L47.7207 38.975C47.6964 40.068 47.8749 41.1561 48.2472 42.184C48.5504 43.0125 49.0295 43.7653 49.6517 44.3907C50.2471 44.966 50.968 45.3952 51.7576 45.6442C52.5917 45.9142 53.4634 46.0497 54.34 46.0457C54.8078 46.0457 55.2424 46.0289 55.6438 45.9952C55.964 45.9711 56.2814 45.9183 56.5922 45.8375L56.747 45.7946Z" fill="#FF61F6"/>
</g>
<defs>
<clipPath id="clip0_3_198">
<rect width="74.752" height="73" fill="white"/>
</clipPath>
</defs>
</svg>
