<?xml version="1.0" encoding="UTF-8"?>
<svg id="icon" xmlns="http://www.w3.org/2000/svg" xmlns:xlink="http://www.w3.org/1999/xlink" viewBox="0 0 141.73 113.57">
  <defs>
    <style>
      .cls-1 {
        font-size: 85px;
        opacity: 0;
      }

      .cls-2 {
        font-family: BrushScriptMT, 'Brush Script MT';
      }

      .cls-3 {
        fill: #fcf7ff;
      }

      .cls-4 {
        font-size: 87.19px;
        opacity: 0;
      }
    </style>
    <linearGradient id="linear-gradient" x1="-5.83" y1="96.41" x2="137.42" y2="13.71" gradientUnits="userSpaceOnUse">
      <stop offset="0" stop-color="#655560"/>
      <stop offset=".14" stop-color="#695964"/>
      <stop offset=".3" stop-color="#766772"/>
      <stop offset=".48" stop-color="#8c7f89"/>
      <stop offset=".66" stop-color="#aa9fa9"/>
      <stop offset=".85" stop-color="#d1c9d2"/>
      <stop offset="1" stop-color="#f5f0f8"/>
      <stop offset="1" stop-color="#fcf7ff"/>
    </linearGradient>
  </defs>
  <text class="cls-2" transform="translate(5.17 84.11) scale(1.48 1)"><tspan class="cls-4" x="0" y="0">J</tspan><tspan class="cls-1" x="32.7" y="-13">H</tspan></text>
  <g>
    <path class="cls-3" d="M54.43,73.72l-16.76,6.39c-3.7,4.23-7.4,8.22-11.12,11.98s-7.01,6.87-9.89,9.32c-2.88,2.46-5.37,4.33-7.46,5.62-2.1,1.29-3.65,1.94-4.66,1.94-1.34,0-2.44-.31-3.28-.92-.84-.61-1.26-1.33-1.26-2.15,0-3.07,2.55-6.9,7.65-11.52,5.1-4.61,13.18-9.52,24.22-14.71,4.79-6.22,8.73-11.86,11.84-16.95,3.11-5.08,5.48-9.42,7.12-13.03,1.64-3.6,2.78-6.5,3.43-8.68s.98-3.58.98-4.17c0-1.22-.69-1.83-2.08-1.83-1.13,0-2.8.44-5.01,1.32s-4.59,2.19-7.15,3.94c-2.56,1.75-4.96,3.77-7.18,6.07-2.23,2.27-4.25,4.82-6.08,7.64-1.83,2.82-3.23,5.43-4.22,7.81-.99,2.38-1.48,4.3-1.48,5.75,0,.37.08,1.18.25,2.43.38-.4.84-.88,1.39-1.45.54-.57,1.24-1.15,2.08-1.75s1.72-1.09,2.65-1.49c.54-.28,1.2-.52,1.95-.7.76-.18,1.13-.16,1.13.06,0,.17-1.2,1.24-3.59,3.21-2.39,1.97-4.47,3.75-6.24,5.34-1.01.91-2.35,1.76-4.03,2.55-1.68.79-3.05,1.19-4.09,1.19-1.26,0-2.09-.4-2.49-1.19-.4-.79-.6-2.06-.6-3.79,0-4.17,1.06-8.81,3.18-13.92,2.12-5.11,4.97-9.59,8.54-13.45,2.9-3.07,6.45-5.84,10.65-8.32,4.2-2.48,8.28-4.42,12.25-5.81s7.09-2.09,9.36-2.09c2.77,0,4.91.59,6.43,1.77,1.51,1.18,2.27,2.8,2.27,4.87,0,1.02-.18,2.17-.54,3.45-.36,1.28-.81,2.57-1.35,3.87-.55,1.31-1.49,3.41-2.83,6.3-1.34,2.89-2.23,4.81-2.65,5.75-1.3,2.92-3.01,5.93-5.13,9-2.12,3.08-5.13,7.16-9.04,12.24l12.85-4.68v2.77Z"/>
    <path class="cls-3" d="M67.61,34.67l-13.2,4.69c-2.05.69-3.42,1.04-4.11,1.04-1.27,0-2.2-.27-2.79-.81-.59-.54-.89-1.38-.89-2.51,0-1.3.41-2.8,1.23-4.5.82-1.7,1.76-2.95,2.82-3.76,1.11-.83,3.69-1.97,7.77-3.42,4.07-1.45,8.98-2.91,14.71-4.38,5.73-1.47,11.71-2.68,17.93-3.65,6.22-.97,11.91-1.45,17.07-1.45,3.6,0,6.26.39,7.98,1.16,1.72.78,2.58,2.82,2.58,6.14,0,1.8-.91,3.8-2.73,6-1.82,2.2-4.01,4.34-6.57,6.41-2.56,2.08-7.3,5.76-14.22,11.04,3.68-.39,6.39-.64,8.11-.75,1.72-.11,4.93-.34,9.64-.71,5.44-5.31,9.85-9.55,13.2-12.72,3.36-3.17,6.2-5.8,8.54-7.89,2.33-2.09,3.73-3.29,4.18-3.59.82-.64,1.5-.88,2.06-.73s.83.73.83,1.72c0,1.14-.17,2.06-.52,2.78-.35.72-.89,1.43-1.63,2.14-.74.71-1.13,1.09-1.17,1.14-1.06,1.19-2.6,2.75-4.61,4.67-2.01,1.92-3.97,3.83-5.9,5.71-1.92,1.88-4.11,4.11-6.57,6.68,4.58.11,9.11.51,13.57,1.2l-11.05,10.13c-3.03-.28-7.06-.42-12.1-.42-1.23,1.66-2.18,2.96-2.86,3.9s-1.25,1.83-1.72,2.68-.71,1.63-.71,2.34c0,.44.19,1.03.58,1.76.39.73.58,1.16.58,1.27,0,.55-.6,1.14-1.81,1.76-1.21.62-2.62,1.17-4.24,1.64-1.62.47-2.88.71-3.78.71-1.51,0-2.27-.78-2.27-2.32,0-3.21,2.44-7.68,7.31-13.41-6.47.36-13.9,1.01-22.29,1.95-2.42,2.16-4.61,4.21-6.57,6.14-1.97,1.94-3.57,3.57-4.82,4.9s-2.17,2.21-2.76,2.66c-.59.44-1.24.66-1.93.66-1.19,0-2.19-.35-3.01-1.04-.37-.28-.6-.55-.71-.83-.1-.28-.15-.58-.15-.91v-.87c0-.33.27-.82.8-1.45s1.8-1.9,3.81-3.8,3.48-3.33,4.42-4.3c-1.07.08-2.44.12-4.11.12-2.13,0-3.86-.26-5.19-.79-1.33-.53-2-1.18-2-1.95,0-.88.35-1.83,1.04-2.84.7-1.01,1.6-1.85,2.7-2.53s2.21-1.02,3.32-1.02c.74,0,1.62.15,2.64.46l15.84-2.66c8.84-6.47,15.43-11.59,19.77-15.36,4.34-3.76,6.51-6.18,6.51-7.26,0-.61-.25-1.11-.74-1.51-.49-.4-1.18-.71-2.06-.93-.88-.22-1.89-.33-3.04-.33-1.35,0-3.49.25-6.42.75-2.93.5-6.42,1.23-10.47,2.2-4.05.97-9.11,2.31-15.17,4.03-4.5,1.25-6.75,2.03-6.75,2.37,0,.39.31.64.92.75.61.11,1.4.19,2.36.25.96.06,1.44.15,1.44.29,0,.11-.24.26-.71.46-.47.19-1.12.43-1.93.71Z"/>
  </g>
</svg>