<svg width="61" height="85" viewBox="0 0 61 85" fill="none" xmlns="http://www.w3.org/2000/svg">
<g clip-path="url(#clip0_3_31)">
<path d="M30.1018 84.7853L5.5714 77.9754L0.104797 16.6624H60.1723L54.7 77.966L30.1018 84.7853Z" fill="#264DE4"/>
<path d="M50.0151 74.0623L54.6912 21.6754H30.1385V79.5727L50.0151 74.0623Z" fill="#2965F1"/>
<path d="M12.6368 44.4157L13.3106 51.9355H30.1385V44.4157H12.6368ZM11.2824 29.1956L11.9659 36.7153H30.1385V29.1956H11.2824ZM30.1385 63.9455L30.1056 63.9542L21.7308 61.6929L21.1954 55.6955H13.6466L14.7001 67.5028L30.1039 71.7787L30.1385 71.7693V63.9455Z" fill="#EBEBEB"/>
<path d="M14.2414 0H23.3489V3.80875H18.0501V7.61751H23.3493V11.426H14.2414V0ZM25.1706 0H34.2783V3.31194H28.9794V3.97428H34.2783V11.5918H25.1708V8.11385H30.4698V7.45151H25.1704L25.1706 0ZM36.1001 0H45.2078V3.31194H39.9088V3.97428H45.2078V11.5918H36.1001V8.11385H41.399V7.45151H36.1003L36.1001 0Z" fill="#F7F7F7"/>
<path d="M47.5922 44.4157L48.9496 29.1956H30.1126V36.7153H40.7086L40.0244 44.4157H30.1126V51.9355H39.3724L38.4993 61.6882L30.1124 63.9518V71.7751L45.5284 67.5028L45.6415 66.2322L47.4088 46.435L47.5922 44.4157Z" fill="white"/>
</g>
<defs>
<clipPath id="clip0_3_31">
<rect width="60.277" height="85" fill="white"/>
</clipPath>
</defs>
</svg>
