<svg width="61" height="85" viewBox="0 0 61 85" fill="none" xmlns="http://www.w3.org/2000/svg">
<g clip-path="url(#clip0_3_24)">
<path d="M60.1722 16.6624L54.7 77.966L30.1018 84.7853L5.5714 77.9754L0.104797 16.6624H60.1722Z" fill="#E44D26"/>
<path d="M30.1385 79.5727L50.0151 74.0623L54.6912 21.6754H30.1385V79.5727Z" fill="#F16529"/>
<path d="M19.5006 36.7154H30.1385V29.1956H11.2824L11.4623 31.213L13.3106 51.9355H30.1385V44.4157H20.1879L19.5006 36.7154ZM21.1954 55.6955H13.6466L14.7001 67.5028L30.1039 71.7787L30.1385 71.7693V63.9455L30.1056 63.9542L21.7308 61.6929L21.1954 55.6955Z" fill="#EBEBEB"/>
<path d="M5.69336 0H9.51483V3.77555H13.0107V0H16.8324V11.4333H13.0109V7.60479H9.51506V11.4333H5.69359L5.69336 0ZM21.8575 3.79157H18.4937V0H29.0455V3.79157H25.6797V11.4333H21.8582L21.8575 3.79157ZM30.7201 0H34.7047L37.1558 4.01737L39.6046 0H43.5909V11.4333H39.785V5.76634L37.1558 9.83151H37.0899L34.4592 5.76634V11.4333H30.7201V0ZM45.4927 0H49.3153V7.65424H54.6894V11.4333H45.4924L45.4927 0Z" fill="#F7F7F7"/>
<path d="M30.1126 51.9355H39.3724L38.4993 61.6882L30.1124 63.9518V71.7751L45.5284 67.5028L45.6415 66.2322L47.4088 46.435L47.5922 44.4157H30.1126V51.9355ZM30.1126 36.697V36.7154H48.2765L48.4272 35.0252L48.77 31.213L48.9496 29.1956H30.1126V36.697Z" fill="white"/>
</g>
<defs>
<clipPath id="clip0_3_24">
<rect width="60.277" height="85" fill="white"/>
</clipPath>
</defs>
</svg>
