<svg width="73" height="73" viewBox="0 0 73 73" fill="none" xmlns="http://www.w3.org/2000/svg">
<path d="M36.5 45.6318V50.1943H45.625C46.8351 50.1943 47.9955 49.7136 48.8512 48.858C49.7068 48.0024 50.1875 46.8419 50.1875 45.6318V41.0693C50.1875 39.8593 49.7068 38.6988 48.8512 37.8432C47.9955 36.9875 46.8351 36.5068 45.625 36.5068H41.0625V31.9443H50.1875V27.3818H41.0625C39.8524 27.3818 38.692 27.8625 37.8363 28.7182C36.9807 29.5738 36.5 30.7343 36.5 31.9443V36.5068C36.5 37.7169 36.9807 38.8774 37.8363 39.733C38.692 40.5886 39.8524 41.0693 41.0625 41.0693H45.625V45.6318H36.5Z" fill="#8BC34A"/>
<path d="M36.5 6.85059L9.125 22.8193V54.7568L18.25 59.3193H31.9375V28.5225C31.9375 28.2199 31.8173 27.9298 31.6034 27.7159C31.3895 27.502 31.0994 27.3818 30.7969 27.3818H28.5156C28.2131 27.3818 27.923 27.502 27.7091 27.7159C27.4952 27.9298 27.375 28.2199 27.375 28.5225V54.7568H18.25L13.6875 52.398V25.4359L36.5 12.1294L59.3125 25.4359V52.1334L36.5 65.4399L32.5192 63.1085L29.6562 66.7334L36.5 70.7256L63.875 54.7568V22.8193L36.5 6.85059Z" fill="#8BC34A"/>
</svg>
