<svg width="81" height="81" viewBox="0 0 81 81" fill="none" xmlns="http://www.w3.org/2000/svg">
<path d="M30.375 10.125H40.5V30.375H30.375C27.6897 30.375 25.1143 29.3083 23.2155 27.4095C21.3167 25.5107 20.25 22.9353 20.25 20.25C20.25 17.5647 21.3167 14.9893 23.2155 13.0905C25.1143 11.1917 27.6897 10.125 30.375 10.125Z" fill="#F4511E"/>
<path d="M50.625 30.375H40.5V10.125H50.625C53.3103 10.125 55.8856 11.1917 57.7845 13.0905C59.6833 14.9893 60.75 17.5647 60.75 20.25C60.75 22.9353 59.6833 25.5107 57.7845 27.4095C55.8856 29.3083 53.3103 30.375 50.625 30.375Z" fill="#FF8A65"/>
<path d="M40.5 40.5C40.5 46.0919 45.0331 50.625 50.625 50.625C56.2169 50.625 60.75 46.0919 60.75 40.5C60.75 34.9081 56.2169 30.375 50.625 30.375C45.0331 30.375 40.5 34.9081 40.5 40.5Z" fill="#29B6F6"/>
<path d="M30.375 30.375H40.5V50.625H30.375C27.6897 50.625 25.1143 49.5583 23.2155 47.6595C21.3167 45.7606 20.25 43.1853 20.25 40.5C20.25 37.8147 21.3167 35.2393 23.2155 33.3405C25.1143 31.4417 27.6897 30.375 30.375 30.375Z" fill="#7C4DFF"/>
<path d="M30.375 50.625H40.5V60.75C40.5 63.4353 39.4333 66.0106 37.5345 67.9095C35.6357 69.8083 33.0603 70.875 30.375 70.875C27.6897 70.875 25.1143 69.8083 23.2155 67.9095C21.3167 66.0106 20.25 63.4353 20.25 60.75C20.25 58.0647 21.3167 55.4894 23.2155 53.5905C25.1143 51.6917 27.6897 50.625 30.375 50.625Z" fill="#00E676"/>
</svg>
