<svg width="77" height="77" viewBox="0 0 77 77" fill="none" xmlns="http://www.w3.org/2000/svg">
<path d="M37.8263 36.8958H31.185V26.2762H39.1096C43.1521 26.2762 45.3979 28.0729 45.3979 31.3775C45.3979 34.9708 42.735 36.8958 37.8263 36.8958ZM39.0134 40.5212H31.185V52.1995H39.3984C44.4034 52.1995 47.0342 50.1783 47.0342 46.3283C47.0342 42.4783 44.3071 40.5212 39.0134 40.5212ZM70.5834 17.0362V59.9637C70.5834 65.7708 65.7709 70.5833 59.9638 70.5833H17.0363C11.2292 70.5833 6.41669 65.7708 6.41669 59.9637V17.0362C6.41669 11.2291 11.2292 6.41663 17.0363 6.41663H59.9638C65.7709 6.41663 70.5834 11.2291 70.5834 17.0362ZM51.3334 46.5208C51.3334 42.0933 48.3817 38.917 43.8579 38.3395V38.147C47.0663 37.5695 49.6009 34.3612 49.6009 30.8962C49.6009 25.9233 45.7509 22.6187 40.1042 22.6187H27.0463V55.857H40.0079C47.0984 55.857 51.3334 52.36 51.3334 46.5208Z" fill="#F7F7F7"/>
</svg>
