<svg width="82" height="82" viewBox="0 0 82 82" fill="none" xmlns="http://www.w3.org/2000/svg">
<path d="M0 26.9302V55.0664H28.1362V26.9302H0ZM2.911 29.8412H25.2218V52.152H2.911V29.8412ZM78.9933 32.2158C77.2372 32.2158 75.9662 33.3945 75.9662 35.1985C75.9662 36.9444 77.1962 38.1983 78.9933 38.1983C80.7632 38.1983 82 36.9718 82 35.1985C82 33.4184 80.7734 32.2158 78.9933 32.2158ZM20.8314 32.4037C20.5944 32.393 20.3577 32.4318 20.1365 32.5177C19.9152 32.6035 19.7143 32.7345 19.5465 32.9023C19.3788 33.0701 19.2478 33.271 19.1619 33.4922C19.0761 33.7134 19.0372 33.9501 19.0479 34.1872C19.0479 35.219 19.7996 35.9263 20.8314 35.9263C21.8633 35.9263 22.6149 35.2224 22.6149 34.1872C22.6256 33.9501 22.5868 33.7134 22.5009 33.4922C22.4151 33.271 22.2841 33.0701 22.1163 32.9023C21.9485 32.7345 21.7476 32.6035 21.5264 32.5177C21.3051 32.4318 21.0685 32.393 20.8314 32.4037ZM78.9933 32.7522C80.4864 32.7522 81.4397 33.702 81.4397 35.1985C81.4397 36.654 80.5035 37.6312 78.9933 37.6312C77.5378 37.6312 76.5368 36.7053 76.5368 35.1985C76.5368 33.6918 77.4866 32.7522 78.9933 32.7522ZM77.8078 33.4799V36.8556H78.4808V35.7691H78.9592L79.5605 36.8556H80.3122L79.6767 35.67C79.8904 35.5887 80.0732 35.4425 80.1994 35.2519C80.3257 35.0613 80.389 34.8359 80.3805 34.6074C80.3805 33.9138 79.8372 33.4799 79.1027 33.4799H77.8078ZM65.0294 33.4868V48.7524H67.9438V42.6913C67.9438 40.7403 68.9757 39.5684 70.6908 39.5684C72.406 39.5684 73.2978 40.6959 73.2978 42.4316V48.7524H76.2088V42.1036C76.2088 39.0969 74.0938 37.1494 71.3947 37.1494C69.6556 37.1494 68.5998 37.8054 67.9438 38.909V33.4868H65.0294ZM78.4808 34.0232H79.0173C79.4102 34.0232 79.6767 34.2418 79.6767 34.6074C79.6767 35.0106 79.4102 35.2258 79.0173 35.2258H78.4808V34.0232ZM5.44958 34.1906V42.7152C5.44958 46.6136 7.585 48.8925 11.2033 48.8925C14.8898 48.8925 17.0731 46.5658 17.0731 42.7152V34.1906H14.1621V42.7152C14.1621 44.9223 13.2225 46.1455 11.2716 46.1455C9.25233 46.1455 8.36058 44.854 8.36058 42.7152V34.1906H5.44958ZM31.2352 34.1906V48.7524H34.1462V44.0545H36.777C39.9477 44.0545 42.0148 42.1993 42.0148 39.0764C42.0148 36.0698 39.9955 34.1906 36.777 34.1906H31.2352ZM57.9159 34.1906V37.3134H56.5527V39.7803H57.9159V44.7344C57.9159 47.437 59.1118 48.7524 61.8827 48.7524H63.4099V46.2617H62.2585C61.131 46.2617 60.8269 45.7697 60.8269 44.7583V39.7803H63.386V37.3134H60.8269V34.1906H57.9159ZM34.1462 36.5378H36.4729C38.1403 36.5378 39.0559 37.4808 39.0559 39.0764C39.0559 40.7916 38.1403 41.7278 36.4729 41.7278H34.1462V36.5378ZM48.2843 37.1733C45.1376 37.1733 43.0022 39.6607 43.0022 43.0432C43.0022 46.4496 45.1854 48.8925 48.2843 48.8925C50.1191 48.8925 51.3149 48.2331 51.9948 47.1295V48.7524H54.9092V37.3134H51.9948V39.1003C51.291 37.925 50.0713 37.1733 48.2843 37.1733ZM19.3759 37.3134V48.7524H22.2869V37.3134H19.3759ZM48.9677 39.7085C50.8229 39.7085 51.9948 41.0718 51.9948 43.0432C51.9948 45.0419 50.7512 46.3334 48.9677 46.3334C46.9928 46.3334 45.961 44.9463 45.961 43.0432C45.961 41 47.1124 39.7085 48.9677 39.7085Z" fill="#F7F7F7"/>
</svg>
