<svg width="74" height="74" viewBox="0 0 74 74" fill="none" xmlns="http://www.w3.org/2000/svg">
<g clip-path="url(#clip0_3_47)">
<path d="M56.6562 0H17.3438C7.76506 0 0 7.76506 0 17.3438V56.6562C0 66.2349 7.76506 74 17.3438 74H56.6562C66.2349 74 74 66.2349 74 56.6562V17.3438C74 7.76506 66.2349 0 56.6562 0Z" fill="#F0DB4F"/>
<path d="M19.4574 61.8397L25.1201 58.4126C26.2128 60.3496 27.2066 61.9886 29.5905 61.9886C31.8755 61.9886 33.3162 61.0948 33.3162 57.6179V33.9732H40.2705V57.7162C40.2705 64.9188 36.0484 68.1973 29.8885 68.1973C24.3255 68.1973 21.0964 65.3162 19.4571 61.8391M44.0476 61.0945L49.7098 57.8162C51.2005 60.2504 53.1378 62.0386 56.5649 62.0386C59.4466 62.0386 61.2839 60.5979 61.2839 58.6109C61.2839 56.2267 59.3963 55.382 56.2172 53.9916L54.479 53.2461C49.4618 51.1105 46.1335 48.4281 46.1335 42.7653C46.1335 37.5495 50.1075 33.5754 56.3169 33.5754C60.7378 33.5754 63.9169 35.1156 66.2017 39.139L60.7873 42.6162C59.5949 40.4803 58.3039 39.6359 56.3169 39.6359C54.2802 39.6359 52.9886 40.9275 52.9886 42.6162C52.9886 44.7023 54.2802 45.547 57.2604 46.8388L58.9988 47.5837C64.9099 50.1173 68.2381 52.6998 68.2381 58.5114C68.2381 64.7708 63.3206 68.1979 56.7141 68.1979C50.2567 68.1979 46.0841 65.1182 44.0476 61.0945Z" fill="#323330"/>
</g>
<defs>
<clipPath id="clip0_3_47">
<rect width="74" height="74" fill="white"/>
</clipPath>
</defs>
</svg>
