<svg width="70" height="70" viewBox="0 0 70 70" fill="none" xmlns="http://www.w3.org/2000/svg">
<g clip-path="url(#clip0_4_30)">
<mask id="mask0_4_30" style="mask-type:luminance" maskUnits="userSpaceOnUse" x="0" y="0" width="70" height="70">
<path d="M53.5938 0H16.4062C7.34533 0 0 7.34533 0 16.4062V53.5938C0 62.6547 7.34533 70 16.4062 70H53.5938C62.6547 70 70 62.6547 70 53.5938V16.4062C70 7.34533 62.6547 0 53.5938 0Z" fill="white"/>
</mask>
<g mask="url(#mask0_4_30)">
<path d="M53.5938 0H16.4062C7.34533 0 0 7.34533 0 16.4062V53.5938C0 62.6547 7.34533 70 16.4062 70H53.5938C62.6547 70 70 62.6547 70 53.5938V16.4062C70 7.34533 62.6547 0 53.5938 0Z" fill="#59B943"/>
<path fill-rule="evenodd" clip-rule="evenodd" d="M63.9231 -1.64062H70V71.3672H69.4351C69.5057 71.3675 69.5757 71.3538 69.641 71.3269C69.7064 71.3001 69.7657 71.2606 69.8158 71.2107C69.8658 71.1608 69.9054 71.1015 69.9324 71.0363C69.9595 70.971 69.9733 70.9011 69.9732 70.8304V9.22469C70.0158 9.09926 70.0068 8.96207 69.9482 8.84326C69.8897 8.72445 69.7863 8.63377 69.6609 8.59113C69.5354 8.54855 69.3982 8.55742 69.2792 8.61578C69.1602 8.67415 69.0692 8.77727 69.026 8.90258L46.4193 34.2191C46.3547 34.2887 46.2764 34.3443 46.1894 34.3824C46.1023 34.4204 46.0083 34.44 45.9133 34.44C45.8183 34.44 45.7243 34.4204 45.6372 34.3824C45.5502 34.3443 45.4719 34.2887 45.4073 34.2191L33.8671 22.3445C33.7695 22.2227 33.7163 22.0713 33.7163 21.9152C33.7163 21.7591 33.7695 21.6077 33.8671 21.4859L37.6778 16.6113C37.7417 16.5226 37.8258 16.4504 37.9232 16.4006C38.0205 16.3507 38.1283 16.3247 38.2376 16.3247C38.347 16.3247 38.4548 16.3507 38.5521 16.4006C38.6495 16.4504 38.7336 16.5226 38.7975 16.6113L45.2566 23.7404C45.3214 23.8172 45.4022 23.8789 45.4933 23.9212C45.5844 23.9635 45.6836 23.9855 45.7841 23.9855C45.8846 23.9855 45.9838 23.9635 46.0749 23.9212C46.166 23.8789 46.2468 23.8172 46.3116 23.7404L64.3109 -0.867617C64.3609 -0.940352 64.3904 -1.02512 64.3967 -1.11316C64.4026 -1.20118 64.3848 -1.28917 64.3452 -1.36801C64.3057 -1.44686 64.2458 -1.51369 64.1717 -1.5616C64.0974 -1.60981 64.0116 -1.63711 63.9231 -1.64062ZM0.538125 -1.64062H0V-1.10387C0 -1.24605 0.0566016 -1.38277 0.157773 -1.4834C0.258672 -1.58402 0.395664 -1.64062 0.538125 -1.64062ZM0 70.8304V71.3672H0.538125C0.395528 71.3672 0.258749 71.3106 0.157773 71.21C0.107795 71.1602 0.0681315 71.1011 0.0410573 71.0359C0.0139831 70.9708 3.06808e-05 70.901 0 70.8304ZM46.2022 44.5812C44.8669 44.5404 43.5647 45.0009 42.5521 45.8722C41.5428 46.74 40.8984 47.9569 40.7477 49.2795C40.7412 49.3051 40.7407 49.3319 40.7463 49.3577C40.7518 49.3835 40.7632 49.4078 40.7796 49.4285C40.7964 49.4491 40.8176 49.4656 40.8418 49.4766C40.8659 49.4877 40.8923 49.493 40.9188 49.4922H51.5071C51.5315 49.4922 51.5556 49.4871 51.5778 49.4773C51.6001 49.4674 51.6201 49.453 51.6365 49.435C51.6528 49.4171 51.665 49.3957 51.6722 49.3725C51.6795 49.3493 51.6815 49.3249 51.6783 49.3008C51.5732 47.9542 50.9395 46.7039 49.9157 45.8229C48.8882 44.9387 47.5549 44.4929 46.2022 44.5812ZM7.14793 59.0633C10.5533 62.0457 14.9855 63.5859 19.5065 63.3579H19.4846C27.6448 63.3579 31.5848 59.1921 31.5848 53.7379C31.5848 46.8973 25.2194 45.3734 20.1988 44.1714C16.9302 43.3885 14.2316 42.7427 14.2316 40.8543C14.2316 39.0504 15.7817 37.8265 18.5374 37.8265C21.5363 37.7982 24.4544 38.7986 26.8051 40.661C26.8745 40.7203 26.9554 40.7648 27.0428 40.7916C27.1301 40.8184 27.2221 40.827 27.3129 40.8168C27.4036 40.8067 27.4913 40.7781 27.5706 40.7328C27.6498 40.6875 27.719 40.6265 27.7739 40.5535L30.4221 36.8818C30.5418 36.7579 30.6087 36.5924 30.6087 36.4201C30.6087 36.2478 30.5418 36.0823 30.4221 35.9584C27.2341 33.3754 23.2192 32.0331 19.1187 32.1792C11.9708 32.1792 7.66473 36.345 7.66473 41.3481C7.66473 48.0752 13.7895 49.5258 18.7707 50.7054C22.1845 51.514 25.0611 52.1951 25.0611 54.3607C25.0611 56.0785 23.3387 57.7104 19.8078 57.7104C16.457 57.721 13.2263 56.4629 10.7652 54.1887C10.6507 54.1189 10.5178 54.0851 10.3838 54.092C10.2498 54.0988 10.1209 54.1459 10.0141 54.227C9.94345 54.281 9.88401 54.3483 9.8391 54.425L7.14793 58.1829C7.04048 58.3043 6.98116 58.4609 6.98116 58.6231C6.98116 58.7853 7.04048 58.9418 7.14793 59.0633ZM57.403 53.1341C57.4323 53.0597 57.4457 52.9802 57.4427 52.9006L57.4211 52.2134C57.4211 44.8911 52.8782 39.888 46.1822 39.888C44.6373 39.8611 43.1029 40.147 41.6713 40.7285C40.2408 41.3094 38.9427 42.1741 37.8555 43.2704C36.7692 44.3656 35.9165 45.6699 35.3489 47.1043C34.7819 48.5376 34.5121 50.0713 34.5559 51.6121C34.4938 53.1908 34.7628 54.765 35.3456 56.2335C35.9296 57.7028 36.8141 59.0338 37.9425 60.1412C39.0724 61.2494 40.4211 62.1097 41.9024 62.667C43.3848 63.2245 44.967 63.4671 46.5484 63.3793C49.7131 63.4595 52.816 62.4934 55.3757 60.6307C55.4921 60.5379 55.5697 60.4052 55.5936 60.2584C55.6175 60.1116 55.5858 59.9611 55.5048 59.8363L53.5672 57.0232C53.4995 56.9194 53.4004 56.8398 53.2843 56.7962C53.1682 56.7526 53.0413 56.7471 52.9219 56.7807C52.8426 56.8028 52.7691 56.8416 52.7059 56.8944C51.0882 58.0289 49.1697 58.6568 47.1942 58.6983C45.6889 58.8224 44.1914 58.3801 42.995 57.458C41.8005 56.5372 40.9942 55.2024 40.7351 53.7165C40.732 53.6911 40.7341 53.6653 40.7412 53.6407C40.7483 53.6161 40.7603 53.5931 40.7764 53.5732C40.7923 53.5532 40.8121 53.5365 40.8346 53.5243C40.8571 53.512 40.8818 53.5044 40.9073 53.5019H56.8397C56.9198 53.5049 56.9994 53.4912 57.0741 53.4622C57.1486 53.4332 57.2162 53.389 57.2728 53.3326C57.3295 53.2761 57.3738 53.2085 57.403 53.1341Z" fill="white"/>
</g>
</g>
<defs>
<clipPath id="clip0_4_30">
<rect width="70" height="70" fill="white"/>
</clipPath>
</defs>
</svg>
